<svg id="Layer_1" enable-background="new 0 0 100 100" viewBox="0 0 100 100" xmlns="http://www.w3.org/2000/svg"><path d="m50 32.1875c-13.6467514 0-27.8634987-2.8666267-35.625-8.3101234v14.2476234c.0000019 4.9589996 13.5529385 11.875 35.625 11.875s35.625-6.9160004 35.625-11.875v-14.2476234c-7.7615051 5.4434967-21.9782486 8.3101234-35.625 8.3101234z"/><path d="m50 79.6875c-13.6467514 0-27.8634987-2.8666229-35.625-8.3101273v14.2476273c0 4.9589996 13.5529366 11.875 35.625 11.875s35.625-6.9160004 35.625-11.875v-14.2476273c-7.7615051 5.4435044-21.9782486 8.3101273-35.625 8.3101273z"/><path d="m50 55.9375c-13.6467514 0-27.8634987-2.8666267-35.625-8.3101273v14.2476273c0 4.9589996 13.5529366 11.875 35.625 11.875s35.625-6.9160004 35.625-11.875v-14.2476273c-7.7615051 5.4435006-21.9782486 8.3101273-35.625 8.3101273z"/><path d="m14.3750019 14.375c0-6.5609369 15.9421845-11.875 35.6249981-11.875s35.625 5.3140631 35.625 11.875-15.9421921 11.875-35.625 11.875-35.6249981-5.3140621-35.6249981-11.875z"/></svg>