<svg xmlns="http://www.w3.org/2000/svg" version="1.1" xmlns:xlink="http://www.w3.org/1999/xlink" width="512" height="512" x="0" y="0" viewBox="0 0 100 100" style="enable-background:new 0 0 512 512" xml:space="preserve" class=""><g><path d="M50 32.188c-13.647 0-27.863-2.867-35.625-8.31v14.247C14.375 43.084 27.928 50 50 50s35.625-6.916 35.625-11.875V23.877c-7.762 5.444-21.978 8.31-35.625 8.31zM50 79.688c-13.647 0-27.863-2.867-35.625-8.31v14.247C14.375 90.584 27.928 97.5 50 97.5s35.625-6.916 35.625-11.875V71.377c-7.762 5.444-21.978 8.31-35.625 8.31z" fill="#ffffff" opacity="1" data-original="#000000" class=""></path><path d="M50 55.938c-13.647 0-27.863-2.867-35.625-8.31v14.247c0 4.959 13.553 11.875 35.625 11.875s35.625-6.916 35.625-11.875V47.627c-7.762 5.444-21.978 8.31-35.625 8.31zM14.375 14.375C14.375 7.815 30.317 2.5 50 2.5s35.625 5.314 35.625 11.875S69.683 26.25 50 26.25s-35.625-5.314-35.625-11.875z" fill="#ffffff" opacity="1" data-original="#000000" class=""></path></g></svg>
